<svg width="167" height="85" viewBox="0 0 167 85" fill="none" xmlns="http://www.w3.org/2000/svg">
<g clip-path="url(#clip0_315_23079)">
<path d="M29.0166 32.513C28.9565 32.513 28.9565 32.4523 29.0166 32.3916L39.2508 22.0258V20.9032C39.2461 20.8216 39.2119 20.7447 39.1547 20.6869C39.0976 20.6291 39.0214 20.5945 38.9407 20.5897H20.0928V14.3904V12.5195L13.1499 14.0163V15.0275H13.5201C13.7475 15.022 13.9737 15.0632 14.185 15.1487C14.3962 15.2341 14.5881 15.362 14.749 15.5247C14.9099 15.6873 15.0364 15.8813 15.121 16.0949C15.2055 16.3084 15.2463 16.537 15.2408 16.767V20.62H9.82851C9.78149 20.6225 9.73708 20.6425 9.70386 20.6761C9.67058 20.7097 9.65086 20.7546 9.64844 20.8021V23.1584H15.2408V36.4874C15.2408 40.654 17.8819 43.5665 22.5438 43.1923C23.512 43.0819 24.4391 42.7348 25.245 42.181C25.4137 42.0724 25.5533 41.9232 25.651 41.7467C25.7488 41.5702 25.8018 41.372 25.8052 41.1697V39.8449C24.9885 40.4166 24.0268 40.7395 23.034 40.7753C20.0928 40.7753 20.1528 36.983 20.1528 36.983V23.1989H33.7285L23.9544 33.14C23.9544 34.4446 23.8944 35.4963 23.8944 35.4963C23.8944 35.5124 23.9007 35.5279 23.912 35.5392C23.9232 35.5506 23.9385 35.557 23.9544 35.557C32.9582 37.1144 35.3192 42.9496 35.3192 44.6587C35.3192 44.6587 36.3196 52.9211 28.0762 53.538C28.0762 53.538 22.7339 53.7907 21.7435 51.6165C21.7309 51.6018 21.7222 51.5842 21.7185 51.5652C21.7147 51.5461 21.7159 51.5265 21.7219 51.5081C21.728 51.4897 21.7388 51.4732 21.753 51.4603C21.7674 51.4474 21.7847 51.4385 21.8035 51.4344C22.2511 51.2453 22.632 50.924 22.8961 50.5127C23.1603 50.1013 23.2955 49.619 23.2842 49.1287C23.3062 48.7298 23.2427 48.3309 23.0979 47.9592C22.9532 47.5875 22.7306 47.2519 22.4456 46.9752C22.1605 46.6986 21.8197 46.4875 21.4464 46.3565C21.0731 46.2255 20.6762 46.1776 20.2829 46.2161C19.5072 46.2155 18.7616 46.5184 18.202 47.0614C17.6425 47.6044 17.3126 48.3452 17.2816 49.1287C17.2816 49.1287 16.4813 56.0864 28.0361 55.9044C41.1517 55.6212 40.3613 44.4969 40.3613 44.4969C39.8611 36.4874 29.9169 32.8872 29.0166 32.513Z" fill="white"/>
<path d="M10.7445 60.8906H0V61.9424H4.73198V75.0489H5.9625V61.9424H10.7445V60.8906Z" fill="white"/>
<path d="M14.9237 64.3703C14.1197 64.3819 13.3342 64.6167 12.6527 65.0478C11.9609 65.5389 11.4089 66.2048 11.052 66.9796C10.6744 67.8381 10.4866 68.7701 10.5018 69.71V70.1447C10.4779 71.0724 10.6879 71.9915 11.1121 72.8146C11.4764 73.5839 12.0532 74.2302 12.7727 74.6754C13.4949 75.1145 14.3209 75.3487 15.1637 75.353C15.885 75.3866 16.6028 75.2337 17.249 74.9078C17.8952 74.5825 18.4481 74.0951 18.8553 73.4922L18.115 72.9357C17.7879 73.3894 17.3404 73.7398 16.8245 73.9471C16.3281 74.1832 15.7815 74.2908 15.2338 74.2608C14.7425 74.2779 14.2539 74.1801 13.8062 73.9746C13.3585 73.7692 12.9637 73.4622 12.6527 73.0776C11.9687 72.2447 11.6125 71.1862 11.6523 70.1044V69.9124H19.0854V69.2954C19.1676 68.0179 18.7751 66.7558 17.985 65.7559C17.6197 65.2961 17.1517 64.931 16.6195 64.6901C16.0872 64.4491 15.506 64.3397 14.9237 64.3703ZM17.9249 68.8404H11.7223C11.8055 67.8742 12.191 66.9606 12.8228 66.2311C13.0931 65.9192 13.4297 65.6734 13.8075 65.5126C14.1852 65.3511 14.5942 65.279 15.0037 65.3004C15.3994 65.2838 15.7936 65.3591 16.1561 65.5205C16.5185 65.6813 16.8396 65.9247 17.0946 66.2311C17.6902 66.9386 18.0134 67.84 18.005 68.7695L17.945 68.8905L17.9249 68.8404Z" fill="white"/>
<path d="M28.7333 65.4204V64.5508H21.1801V65.5414H27.3226L21 74.1784V75.048H29.1634V74.0469H22.4106L28.7333 65.4204Z" fill="white"/>
<path d="M35.5099 64.3686C34.6632 64.3588 33.8314 64.5937 33.1119 65.045C32.3925 65.4963 31.8154 66.1457 31.4482 66.9168C31.0741 67.7772 30.8865 68.7079 30.898 69.6478V69.89C30.8259 71.3184 31.2864 72.7225 32.1885 73.8244C32.606 74.3124 33.1266 74.6989 33.7119 74.9563C34.2971 75.2138 34.9321 75.3348 35.5699 75.311C36.4185 75.3532 37.2579 75.1153 37.9609 74.6334C38.6609 74.1821 39.2168 73.5358 39.5616 72.7726C39.9391 71.9098 40.1269 70.9748 40.1118 70.0318V69.7793C40.1788 68.3575 39.7186 66.962 38.8213 65.865C38.415 65.3813 37.9066 64.996 37.3336 64.7368C36.7605 64.4781 36.1374 64.3521 35.5099 64.3686ZM39.0113 69.8294C39.0701 70.9723 38.7144 72.0981 38.011 72.9952C37.7121 73.3762 37.3319 73.6838 36.8988 73.8954C36.4658 74.1069 35.9909 74.217 35.5099 74.217C35.0288 74.217 34.554 74.1069 34.1209 73.8954C33.6878 73.6838 33.3076 73.3762 33.0088 72.9952C32.3136 72.1171 31.958 71.0133 32.0084 69.89V69.7083C31.9469 68.5648 32.3029 67.4384 33.0088 66.5425C33.297 66.1438 33.6774 65.8216 34.1167 65.6045C34.5561 65.388 35.0412 65.2828 35.5299 65.2987C36.1851 65.2914 36.827 65.4852 37.3707 65.8552C37.9211 66.2429 38.3485 66.7841 38.6011 67.4127C38.8906 68.0994 39.0338 68.84 39.0214 69.5866V69.8294H39.0113Z" fill="white"/>
<path d="M49.4966 70.9501C49.2063 70.5367 48.8309 70.1918 48.3961 69.9387C47.6898 69.5552 46.9202 69.3051 46.1252 69.2006C45.3832 69.0691 44.6734 68.7945 44.0343 68.3915C43.8465 68.2478 43.6976 68.0583 43.6014 67.8406C43.5052 67.6235 43.4649 67.385 43.484 67.1477C43.4791 66.8909 43.5378 66.6371 43.6549 66.409C43.772 66.1809 43.9437 65.9865 44.1543 65.8428C44.7123 65.496 45.3607 65.3266 46.0151 65.3578C46.7063 65.312 47.3889 65.5321 47.9259 65.9742C48.1536 66.1638 48.3371 66.4017 48.4634 66.6707C48.5896 66.9398 48.6555 67.2339 48.6562 67.5318H49.8267C49.8316 67.0994 49.7447 66.6707 49.5722 66.2745C49.3996 65.8788 49.1453 65.5248 48.8263 65.2361C48.0221 64.6161 47.0249 64.3073 46.0151 64.3666C45.0684 64.317 44.1344 64.6032 43.374 65.1756C43.0662 65.4135 42.8162 65.7198 42.6428 66.0702C42.4695 66.4206 42.3774 66.8065 42.3736 67.1979C42.3446 67.6632 42.4754 68.1237 42.7437 68.5028C43.0367 68.8924 43.4129 69.2103 43.8442 69.4329C44.5302 69.7515 45.2527 69.9827 45.9951 70.1209C46.7361 70.2554 47.4454 70.53 48.086 70.9299C48.3059 71.0791 48.4841 71.2834 48.6033 71.5225C48.7224 71.7616 48.7785 72.0276 48.7663 72.2954C48.7659 72.5712 48.697 72.8427 48.566 73.0849C48.4349 73.3264 48.2458 73.5319 48.016 73.6805C47.4273 74.0829 46.7243 74.2779 46.0151 74.237C45.2816 74.27 44.5556 74.0761 43.9342 73.6805C43.6747 73.4989 43.4614 73.2573 43.3118 72.976C43.1623 72.6947 43.0808 72.3816 43.0739 72.0624H41.8834C41.8744 72.5003 41.9729 72.9338 42.1702 73.324C42.3675 73.7141 42.6573 74.0486 43.0138 74.2975C43.874 74.9041 44.907 75.2099 45.9551 75.1671C46.9437 75.2307 47.9233 74.9445 48.7263 74.358C49.0419 74.1092 49.2965 73.7893 49.47 73.4249C49.6435 73.0598 49.7314 72.6593 49.7267 72.2545C49.7849 72.0337 49.7945 71.8019 49.7547 71.5769C49.715 71.3512 49.6269 71.1372 49.4966 70.9501Z" fill="white"/>
<path d="M70.3906 0V85" stroke="white" stroke-width="1.05072" stroke-miterlimit="10"/>
<path d="M91.3006 22.6821V28.3151H89.4297V13.9142H94.6823C96.0153 13.8505 97.3235 14.2983 98.3436 15.1681C98.7859 15.5678 99.1344 16.0619 99.365 16.6146C99.5949 17.1673 99.7008 17.7648 99.6742 18.3639C99.7105 18.9673 99.6125 19.5711 99.3874 20.1312C99.1623 20.6912 98.8156 21.1931 98.3739 21.6001C97.312 22.417 95.9941 22.8192 94.6624 22.7327L91.3006 22.6821ZM91.3006 21.1247H94.6823C95.53 21.1913 96.3723 20.9352 97.0433 20.4067C97.318 20.1409 97.5316 19.8176 97.6702 19.4595C97.8081 19.1015 97.8674 18.7172 97.8432 18.3336C97.8547 17.959 97.7894 17.5861 97.6514 17.238C97.5141 16.8901 97.3065 16.5745 97.0433 16.3109C96.437 15.7709 95.6498 15.4852 94.8421 15.512H91.3006V21.1247Z" fill="white"/>
<path d="M106.905 19.2125C106.618 19.1922 106.331 19.1922 106.044 19.2125C105.531 19.1725 105.019 19.3003 104.583 19.5771C104.147 19.8538 103.81 20.2649 103.623 20.7496V28.3142H101.812V17.6146H103.573V18.8484C103.829 18.4018 104.2 18.033 104.645 17.7804C105.09 17.5278 105.594 17.4007 106.104 17.4123C106.378 17.399 106.652 17.4474 106.905 17.5539V19.2125Z" fill="white"/>
<path d="M107.892 22.8639C107.874 21.8881 108.084 20.9218 108.502 20.0424C108.873 19.2437 109.463 18.5697 110.202 18.1006C110.952 17.6384 111.816 17.4 112.694 17.4129C113.352 17.3896 114.007 17.5135 114.612 17.7757C115.217 18.0379 115.758 18.432 116.195 18.9299C117.129 20.0594 117.605 21.5051 117.526 22.9751V23.1066C117.544 24.0738 117.343 25.0324 116.936 25.9079C116.571 26.7054 115.983 27.3771 115.245 27.8395C114.484 28.3112 113.606 28.5533 112.714 28.5373C112.057 28.5606 111.404 28.4366 110.8 28.1744C110.196 27.9121 109.657 27.518 109.222 27.0203C108.286 25.8918 107.811 24.4454 107.892 22.9751V22.8639ZM109.712 23.0864C109.663 24.1046 109.948 25.1108 110.523 25.9483C110.775 26.2922 111.107 26.5692 111.488 26.7558C111.869 26.9425 112.29 27.0332 112.714 27.0203C113.14 27.0345 113.562 26.9421 113.944 26.7516C114.327 26.5611 114.656 26.2783 114.905 25.9281C115.487 25.0295 115.77 23.9669 115.715 22.8942C115.763 21.8778 115.474 20.8742 114.895 20.0424C114.642 19.6946 114.31 19.4137 113.927 19.2236C113.543 19.0334 113.12 18.9396 112.694 18.9502C112.274 18.9417 111.859 19.0355 111.482 19.2239C111.106 19.4123 110.78 19.6895 110.533 20.0322C109.935 20.9316 109.647 22.0049 109.712 23.0864Z" fill="white"/>
<path d="M126.349 27.3055C125.959 27.7364 125.477 28.0729 124.94 28.29C124.403 28.5071 123.825 28.5992 123.248 28.5595C122.771 28.5892 122.293 28.5141 121.848 28.3396C121.402 28.165 120.999 27.895 120.667 27.5482C120.02 26.7116 119.7 25.6646 119.766 24.6053V17.6172H121.577V24.5345C121.577 26.1526 122.237 26.9616 123.578 26.9616C124.142 27.0267 124.711 26.9114 125.207 26.632C125.701 26.3526 126.098 25.9232 126.339 25.4042V17.6172H128.15V28.3168H126.429L126.349 27.3055Z" fill="white"/>
<path d="M130.414 22.8753C130.344 21.4605 130.749 20.0634 131.564 18.911C131.912 18.4389 132.365 18.057 132.886 17.7968C133.409 17.5366 133.984 17.4054 134.565 17.4142C135.122 17.3911 135.675 17.4945 136.186 17.7168C136.697 17.9391 137.152 18.2746 137.517 18.6986V13.1465H139.327V28.316H137.667L137.577 27.1733C137.213 27.6163 136.753 27.9683 136.232 28.2016C135.711 28.4349 135.145 28.5433 134.576 28.5183C133.99 28.5304 133.41 28.3976 132.888 28.1314C132.364 27.8652 131.913 27.4738 131.575 26.9912C130.754 25.8373 130.344 24.4362 130.414 23.0168V22.8753ZM132.224 23.0876C132.165 24.0937 132.424 25.0928 132.965 25.9395C133.198 26.2655 133.507 26.5283 133.865 26.7047C134.223 26.8811 134.618 26.9656 135.016 26.9508C135.541 26.9748 136.062 26.8392 136.512 26.5617C136.961 26.2842 137.318 25.8774 137.537 25.3934V20.4885C137.311 20.0171 136.954 19.6223 136.51 19.3528C136.066 19.0834 135.554 18.9509 135.036 18.9716C134.634 18.9525 134.235 19.035 133.873 19.2116C133.512 19.3882 133.199 19.6533 132.965 19.9829C132.401 20.9133 132.142 21.9998 132.224 23.0876Z" fill="white"/>
<path d="M144.123 28.316H142.312V13.1465H144.123V28.316Z" fill="white"/>
<path d="M150.474 25.6368L152.944 17.6172H154.876L150.624 29.9753C149.963 31.7552 148.913 32.6452 147.482 32.6452H147.142L146.462 32.5137V30.9967H146.952C147.456 31.0285 147.957 30.8975 148.383 30.6226C148.8 30.2643 149.097 29.7837 149.233 29.2472L149.633 28.1651L145.852 17.6172H147.853L150.474 25.6368Z" fill="white"/>
<path d="M89.4297 49.9953V35.5943H94.0422C95.2801 35.5043 96.5114 35.8431 97.5334 36.5551C97.9424 36.9074 98.265 37.3514 98.4755 37.8517C98.6855 38.3519 98.7774 38.8948 98.7436 39.4372C98.7551 40.0813 98.5542 40.7108 98.1736 41.2273C97.7809 41.7751 97.2484 42.205 96.6331 42.4712C97.3616 42.6593 98.0048 43.0949 98.4537 43.705C98.9081 44.3391 99.1435 45.1066 99.1242 45.8894C99.1526 46.4564 99.0558 47.0227 98.8416 47.5474C98.6268 48.0721 98.2994 48.542 97.8838 48.9233C96.889 49.7193 95.6383 50.1155 94.3719 50.0357L89.4297 49.9953ZM91.3006 41.7329H94.142C94.8626 41.7802 95.5748 41.5569 96.143 41.1059C96.3777 40.8996 96.5635 40.6424 96.6863 40.3535C96.8091 40.0647 96.866 39.7515 96.8533 39.4372C96.8848 39.115 96.84 38.7898 96.7214 38.4888C96.6028 38.1879 96.4146 37.9201 96.1726 37.708C95.5458 37.2818 94.7949 37.0823 94.0422 37.1416H91.3006V41.7329ZM91.3006 43.26V48.4379H94.4119C95.1609 48.4836 95.8985 48.2375 96.4727 47.7502C96.7299 47.5114 96.9314 47.2179 97.0633 46.891C97.1946 46.5639 97.2527 46.2115 97.2333 45.859C97.2333 44.1297 96.3027 43.26 94.4318 43.26H91.3006Z" fill="white"/>
<path d="M108.155 48.9369C107.766 49.3702 107.284 49.709 106.747 49.9279C106.21 50.1469 105.631 50.2402 105.053 50.201C104.576 50.2327 104.098 50.1587 103.652 49.984C103.206 49.8093 102.803 49.5382 102.472 49.1897C101.822 48.3557 101.504 47.3058 101.582 46.2468V39.2891H103.393V46.2063C103.393 47.8346 104.043 48.6436 105.394 48.6436C105.958 48.7093 106.529 48.5933 107.025 48.3118C107.521 48.0303 107.916 47.5979 108.155 47.0761V39.2891H109.966V49.9988H108.245L108.155 48.9369Z" fill="white"/>
<path d="M112.672 36.4579C112.666 36.1798 112.762 35.9092 112.943 35.6994C113.046 35.5922 113.171 35.5094 113.309 35.457C113.447 35.4045 113.596 35.3837 113.743 35.396C113.89 35.3837 114.038 35.4045 114.176 35.457C114.315 35.5094 114.44 35.5922 114.543 35.6994C114.724 35.9092 114.82 36.1798 114.814 36.4579C114.814 36.5969 114.786 36.7344 114.731 36.862C114.676 36.9896 114.596 37.1044 114.496 37.1993C114.395 37.2942 114.277 37.3671 114.147 37.4135C114.018 37.46 113.88 37.479 113.743 37.4692C113.596 37.4828 113.449 37.4636 113.311 37.4129C113.172 37.3622 113.046 37.2813 112.943 37.176C112.762 36.9818 112.666 36.7239 112.672 36.4579ZM114.673 49.9993H112.862V39.2895H114.673V49.9993Z" fill="white"/>
<path d="M119.506 49.9957H117.695V34.8262H119.506V49.9957Z" fill="white"/>
<path d="M121.952 44.5559C121.886 43.1401 122.295 41.7431 123.113 40.5916C123.466 40.1373 123.914 39.7664 124.423 39.5048C124.933 39.2433 125.494 39.0973 126.065 39.0771C126.637 39.0568 127.205 39.1629 127.732 39.3878C128.259 39.6127 128.731 39.9511 129.115 40.3792V34.7969H130.926V49.9664H129.255L129.175 48.8136C128.811 49.2572 128.351 49.6102 127.831 49.8453C127.311 50.0803 126.744 50.1909 126.174 50.1687C125.589 50.1756 125.011 50.0406 124.489 49.7749C123.967 49.5091 123.516 49.1205 123.173 48.6416C122.359 47.4842 121.951 46.0856 122.012 44.6672L121.952 44.5559ZM123.763 44.7582C123.706 45.7654 123.969 46.7646 124.513 47.6101C124.745 47.9381 125.054 48.2024 125.411 48.379C125.77 48.5556 126.166 48.6389 126.564 48.6214C127.084 48.6388 127.597 48.5013 128.04 48.2263C128.483 47.9511 128.836 47.5505 129.055 47.0741V42.1592C128.828 41.6895 128.471 41.2969 128.027 41.0293C127.582 40.7617 127.071 40.6307 126.554 40.6523C126.153 40.6341 125.754 40.717 125.393 40.8935C125.031 41.0701 124.719 41.3347 124.483 41.6636C123.93 42.5938 123.677 43.6759 123.763 44.7582Z" fill="white"/>
<path d="M133.711 36.4573C133.705 36.1792 133.801 35.9086 133.982 35.6988C134.204 35.5039 134.488 35.3965 134.782 35.3965C135.076 35.3965 135.36 35.5039 135.582 35.6988C135.77 35.9049 135.871 36.1771 135.862 36.4573C135.867 36.593 135.845 36.7284 135.796 36.8552C135.749 36.9821 135.675 37.0978 135.582 37.1955C135.437 37.361 135.245 37.4774 135.032 37.5291C134.82 37.5809 134.596 37.5656 134.393 37.4852C134.189 37.4047 134.014 37.2631 133.892 37.0793C133.771 36.8955 133.708 36.6784 133.711 36.4573ZM135.712 49.9986H133.861V39.2889H135.672L135.712 49.9986Z" fill="white"/>
<path d="M140.271 39.2871L140.331 40.6423C140.7 40.1481 141.18 39.7499 141.732 39.4808C142.283 39.2117 142.891 39.0794 143.503 39.095C145.737 39.095 146.864 40.3726 146.884 42.9278V50.007H145.053V42.9278C145.101 42.3089 144.915 41.6947 144.533 41.2086C144.317 41.0116 144.064 40.8614 143.789 40.7675C143.513 40.6735 143.222 40.6378 142.932 40.6625C142.38 40.6505 141.838 40.8131 141.381 41.1277C140.949 41.4538 140.605 41.8852 140.381 42.3817V50.007H138.57V39.2871H140.271Z" fill="white"/>
<path d="M149.2 44.556C149.124 43.1343 149.53 41.7291 150.35 40.5715C150.713 40.1177 151.171 39.7503 151.691 39.495C152.21 39.2397 152.778 39.1029 153.356 39.0942C153.933 39.0855 154.505 39.2052 155.032 39.4448C155.558 39.6843 156.027 40.0379 156.403 40.4805L156.493 39.2871H158.144V49.744C158.177 50.3445 158.086 50.9453 157.876 51.5079C157.665 52.0705 157.341 52.5823 156.923 53.0105C156.485 53.421 155.969 53.739 155.408 53.9456C154.845 54.1523 154.249 54.2435 153.652 54.214C152.879 54.2083 152.115 54.0395 151.411 53.7184C150.738 53.4364 150.158 52.9664 149.74 52.3633L150.681 51.2609C151.007 51.7123 151.435 52.0794 151.929 52.3324C152.423 52.5855 152.968 52.7173 153.522 52.7172C153.897 52.7394 154.274 52.6845 154.628 52.5559C154.982 52.4273 155.307 52.2276 155.582 51.9689C155.841 51.6839 156.04 51.3487 156.168 50.9837C156.295 50.6187 156.348 50.2313 156.323 49.8452V48.9248C155.952 49.3544 155.489 49.6925 154.968 49.9133C154.448 50.1342 153.885 50.2319 153.322 50.1991C152.737 50.2097 152.16 50.0774 151.637 49.8132C151.114 49.5491 150.663 49.161 150.32 48.6821C149.504 47.4706 149.11 46.019 149.2 44.556ZM151.021 44.7583C150.963 45.7628 151.218 46.7603 151.751 47.6102C151.984 47.939 152.294 48.2037 152.654 48.3803C153.015 48.5569 153.412 48.6398 153.812 48.6215C154.338 48.6416 154.859 48.5022 155.306 48.2211C155.754 47.94 156.108 47.53 156.323 47.0438V42.1794C156.099 41.7085 155.743 41.3135 155.302 41.0424C154.859 40.7713 154.349 40.6359 153.832 40.6524C153.431 40.6351 153.032 40.7184 152.671 40.8948C152.309 41.0713 151.997 41.3354 151.761 41.6637C151.222 42.5993 150.981 43.6796 151.07 44.7583H151.021Z" fill="white"/>
<path d="M88.6567 66.2296C88.6446 65.2512 88.8534 64.2826 89.2673 63.3977C89.6388 62.5948 90.2348 61.9197 90.9814 61.4544C91.7275 60.9889 92.5921 60.7541 93.4689 60.7786C94.1248 60.7534 94.7783 60.8755 95.3821 61.136C95.9854 61.3969 96.5245 61.7888 96.9602 62.2854C97.8962 63.4142 98.3754 64.8599 98.301 66.3305V66.462C98.3161 67.4288 98.114 68.387 97.7104 69.2633C97.345 70.051 96.7659 70.7175 96.0398 71.1847C95.2805 71.6495 94.4068 71.8879 93.5191 71.8727C92.8638 71.8947 92.2122 71.7699 91.6107 71.5076C91.0087 71.2452 90.4714 70.852 90.0375 70.3555C89.0954 69.2303 88.6156 67.7823 88.6967 66.3104L88.6567 66.2296ZM90.4774 66.4418C90.4266 67.4618 90.7152 68.4696 91.2979 69.3037C91.5581 69.64 91.8909 69.9122 92.2702 70.0993C92.6496 70.2864 93.0665 70.3836 93.4889 70.3836C93.9112 70.3836 94.3281 70.2864 94.7075 70.0993C95.0875 69.9122 95.4196 69.64 95.6798 69.3037C96.2619 68.4054 96.5457 67.3426 96.49 66.27C96.5372 65.2494 96.245 64.2416 95.6599 63.4081C95.4027 63.07 95.0729 62.7966 94.6948 62.6083C94.3166 62.4199 93.9003 62.3221 93.4792 62.3221C93.0574 62.3221 92.6418 62.4199 92.2636 62.6083C91.8854 62.7966 91.555 63.07 91.2979 63.4081C90.7128 64.3052 90.4254 65.368 90.4774 66.4418Z" fill="white"/>
<path d="M102.281 60.9691L102.341 62.3143C102.71 61.8214 103.191 61.4245 103.742 61.1573C104.294 60.8897 104.901 60.7594 105.513 60.777C107.753 60.777 108.874 62.0513 108.894 64.5995V71.679H107.043V64.5995C107.09 63.9837 106.904 63.3728 106.523 62.8903C106.309 62.6891 106.057 62.5357 105.781 62.4397C105.505 62.3436 105.212 62.3076 104.922 62.3345C104.371 62.3241 103.832 62.4904 103.381 62.8096C102.948 63.1301 102.603 63.5587 102.381 64.0534V71.6888H100.57V60.9691H102.281Z" fill="white"/>
<path d="M126.33 58.8269H121.747V71.6808H119.877V58.8269H115.305V57.2695H126.31L126.33 58.8269Z" fill="white"/>
<path d="M131.585 71.8745C130.935 71.8983 130.288 71.784 129.684 71.5381C129.081 71.2929 128.536 70.9211 128.084 70.4484C127.621 69.9323 127.264 69.3287 127.032 68.6732C126.8 68.017 126.699 67.3211 126.733 66.6259V66.2822C126.717 65.3007 126.922 64.329 127.333 63.4399C127.716 62.6376 128.312 61.9582 129.054 61.4782C129.754 61.0185 130.571 60.776 131.405 60.7804C132.006 60.7501 132.606 60.8571 133.16 61.0935C133.714 61.3302 134.209 61.6897 134.606 62.1459C135.443 63.2797 135.85 64.6788 135.757 66.0896V66.8484H128.584C128.562 67.7859 128.887 68.6983 129.495 69.407C129.771 69.7293 130.114 69.9867 130.499 70.1616C130.885 70.3365 131.303 70.424 131.726 70.4184C132.291 70.4374 132.851 70.301 133.346 70.024C133.796 69.7647 134.194 69.4217 134.517 69.0126L135.617 69.8822C135.181 70.5463 134.577 71.0807 133.868 71.4311C133.16 71.7809 132.372 71.9338 131.585 71.8745ZM131.365 62.2774C131.019 62.2713 130.676 62.3404 130.358 62.4798C130.04 62.6192 129.756 62.8259 129.524 63.0864C128.983 63.7169 128.66 64.5088 128.604 65.3417H133.906V65.2102C133.906 64.425 133.645 63.6631 133.166 63.0455C132.939 62.7923 132.661 62.5923 132.35 62.4596C132.039 62.3269 131.703 62.2646 131.365 62.2774Z" fill="white"/>
<path d="M139.518 70.1816H145.71V71.6786H137.297V70.3332L143.139 62.4857H137.387V60.9688H145.39V62.2631L139.518 70.1816Z" fill="white"/>
<path d="M147.119 66.2296C147.102 65.2506 147.311 64.2807 147.729 63.3977C148.1 62.5991 148.691 61.9252 149.43 61.4562C150.181 60.997 151.044 60.762 151.921 60.7787C152.578 60.7533 153.234 60.8753 153.839 61.1358C154.444 61.3962 154.985 61.7888 155.423 62.2854C156.355 63.416 156.83 64.861 156.753 66.3305V66.462C156.773 67.4294 156.571 68.3882 156.163 69.2633C155.797 70.0619 155.209 70.7364 154.472 71.2055C153.709 71.669 152.832 71.9069 151.941 71.8928C151.285 71.916 150.631 71.7919 150.027 71.5302C149.424 71.2678 148.885 70.8734 148.449 70.3756C147.511 69.2486 147.035 67.8012 147.119 66.3305V66.2296ZM148.94 66.4418C148.891 67.46 149.176 68.4665 149.75 69.3037C150.003 69.648 150.334 69.925 150.715 70.1115C151.097 70.298 151.518 70.3885 151.941 70.3756C152.367 70.3897 152.79 70.298 153.172 70.1072C153.554 69.9164 153.884 69.6339 154.132 69.2835C154.714 68.3852 154.998 67.3224 154.942 66.2498C154.992 65.2298 154.703 64.2226 154.122 63.3879C153.87 63.0394 153.538 62.7581 153.154 62.5679C152.771 62.3777 152.348 62.2841 151.921 62.2958C151.501 62.2872 151.086 62.3808 150.71 62.5691C150.334 62.7574 150.008 63.0351 149.76 63.3775C149.162 64.2807 148.874 65.357 148.94 66.4418Z" fill="white"/>
<path d="M165.185 68.84C165.195 68.6156 165.148 68.393 165.05 68.1912C164.952 67.99 164.806 67.8163 164.625 67.6867C164.037 67.3259 163.384 67.085 162.704 66.9792C161.947 66.8349 161.21 66.5933 160.513 66.2606C160.04 66.0277 159.632 65.6803 159.323 65.2498C159.057 64.8462 158.921 64.3692 158.933 63.8843C158.941 63.455 159.047 63.0337 159.243 62.6533C159.439 62.2724 159.72 61.9428 160.063 61.6896C160.868 61.0608 161.867 60.7386 162.885 60.7797C163.936 60.7334 164.97 61.0628 165.806 61.7098C166.161 61.999 166.447 62.3659 166.641 62.783C166.835 63.2 166.932 63.6562 166.926 64.1167H165.065C165.063 63.8672 165.006 63.6208 164.896 63.3969C164.787 63.1725 164.63 62.9762 164.435 62.8227C163.989 62.4497 163.423 62.2552 162.845 62.2766C162.295 62.2467 161.75 62.3996 161.294 62.7114C161.116 62.8423 160.973 63.0147 160.876 63.2135C160.778 63.4122 160.729 63.6324 160.733 63.8543C160.725 64.0537 160.769 64.2524 160.86 64.4298C160.951 64.6071 161.087 64.7575 161.254 64.8652C161.844 65.1746 162.479 65.3899 163.134 65.5024C163.891 65.6589 164.627 65.9066 165.325 66.2405C165.821 66.4637 166.252 66.8122 166.576 67.2519C166.858 67.683 167.001 68.1918 166.986 68.7085C166.998 69.158 166.9 69.6032 166.701 70.0049C166.502 70.4073 166.208 70.754 165.846 71.0139C164.985 71.6193 163.951 71.9214 162.904 71.8737C162.13 71.8896 161.362 71.7343 160.654 71.4187C160.033 71.1466 159.499 70.7057 159.113 70.1443C158.757 69.6276 158.566 69.0143 158.562 68.3844H160.373C160.38 68.6669 160.449 68.9446 160.575 69.1965C160.701 69.4484 160.882 69.6686 161.104 69.841C161.625 70.2238 162.261 70.4128 162.904 70.3767C163.48 70.4085 164.052 70.2642 164.545 69.9621C164.74 69.8484 164.902 69.6851 165.014 69.4876C165.126 69.2907 165.186 69.0675 165.185 68.84Z" fill="white"/>
</g>
<defs>
<clipPath id="clip0_315_23079">
<rect width="167" height="85" fill="white"/>
</clipPath>
</defs>
</svg>
